<svg xmlns="http://www.w3.org/2000/svg" xmlns:xlink="http://www.w3.org/1999/xlink" width="500" zoomAndPan="magnify" viewBox="0 0 375 149.999998" height="200" preserveAspectRatio="xMidYMid meet" version="1.0"><defs><g/><clipPath id="a43066d20e"><path d="M 106.929688 12 L 233 12 L 233 87.800781 L 106.929688 87.800781 Z M 106.929688 12 " clip-rule="nonzero"/></clipPath><clipPath id="43a21744cb"><path d="M 235 40 L 268.179688 40 L 268.179688 73 L 235 73 Z M 235 40 " clip-rule="nonzero"/></clipPath></defs><g fill="#ffffff" fill-opacity="1"><g transform="translate(86.365497, 124.973051)"><g><path d="M 8.109375 0 L 3.203125 0 L 3.203125 -26.859375 L 7.484375 -26.859375 L 16.75 -14.328125 L 26.0625 -26.859375 L 30.34375 -26.859375 L 30.34375 0 L 25.4375 0 L 25.4375 -18.96875 L 17.390625 -8 L 16.078125 -8 L 8.109375 -19.015625 Z M 8.109375 0 "/></g></g></g><g fill="#ffffff" fill-opacity="1"><g transform="translate(119.890858, 124.973051)"><g><path d="M 21.78125 0 L 3.203125 0 L 3.203125 -26.859375 L 21.59375 -26.859375 L 21.59375 -22.453125 L 8.109375 -22.453125 L 8.109375 -15.71875 L 19.765625 -15.71875 L 19.765625 -11.578125 L 8.109375 -11.578125 L 8.109375 -4.40625 L 21.78125 -4.40625 Z M 21.78125 0 "/></g></g></g><g fill="#ffffff" fill-opacity="1"><g transform="translate(142.951883, 124.973051)"><g><path d="M 15.484375 0.578125 C 13.910156 0.578125 12.414062 0.34375 11 -0.125 C 9.59375 -0.601562 8.296875 -1.269531 7.109375 -2.125 C 5.929688 -2.988281 4.910156 -4 4.046875 -5.15625 C 3.179688 -6.320312 2.507812 -7.601562 2.03125 -9 C 1.5625 -10.40625 1.328125 -11.890625 1.328125 -13.453125 C 1.328125 -15.015625 1.5625 -16.5 2.03125 -17.90625 C 2.507812 -19.3125 3.1875 -20.597656 4.0625 -21.765625 C 4.9375 -22.929688 5.960938 -23.941406 7.140625 -24.796875 C 8.328125 -25.648438 9.628906 -26.3125 11.046875 -26.78125 C 12.472656 -27.25 13.976562 -27.484375 15.5625 -27.484375 C 16.6875 -27.484375 17.820312 -27.347656 18.96875 -27.078125 C 20.113281 -26.804688 21.207031 -26.40625 22.25 -25.875 C 23.300781 -25.351562 24.257812 -24.707031 25.125 -23.9375 C 26 -23.164062 26.742188 -22.28125 27.359375 -21.28125 C 27.972656 -20.289062 28.40625 -19.191406 28.65625 -17.984375 L 23.65625 -17.984375 C 22.957031 -19.554688 21.890625 -20.78125 20.453125 -21.65625 C 19.015625 -22.539062 17.34375 -22.984375 15.4375 -22.984375 C 14.175781 -22.984375 12.984375 -22.753906 11.859375 -22.296875 C 10.742188 -21.847656 9.765625 -21.203125 8.921875 -20.359375 C 8.078125 -19.515625 7.414062 -18.507812 6.9375 -17.34375 C 6.457031 -16.175781 6.21875 -14.878906 6.21875 -13.453125 C 6.21875 -11.984375 6.457031 -10.664062 6.9375 -9.5 C 7.414062 -8.34375 8.078125 -7.347656 8.921875 -6.515625 C 9.765625 -5.679688 10.742188 -5.046875 11.859375 -4.609375 C 12.984375 -4.171875 14.175781 -3.953125 15.4375 -3.953125 C 17.039062 -3.953125 18.425781 -4.222656 19.59375 -4.765625 C 20.769531 -5.316406 21.722656 -6.070312 22.453125 -7.03125 C 23.191406 -7.988281 23.6875 -9.09375 23.9375 -10.34375 L 15.25 -10.34375 L 15.25 -14.453125 L 29.265625 -14.453125 C 29.273438 -12.253906 28.976562 -10.234375 28.375 -8.390625 C 27.769531 -6.554688 26.875 -4.96875 25.6875 -3.625 C 24.5 -2.289062 23.050781 -1.253906 21.34375 -0.515625 C 19.632812 0.210938 17.679688 0.578125 15.484375 0.578125 Z M 15.484375 0.578125 "/></g></g></g><g fill="#ffffff" fill-opacity="1"><g transform="translate(173.535391, 124.973051)"><g><path d="M 27.1875 0 L 22 0 L 19.859375 -5.1875 L 7.5 -5.1875 L 5.375 0 L 0.171875 0 L 11.359375 -26.875 L 16.015625 -26.875 Z M 13.5 -19.890625 L 9.1875 -9.296875 L 18.1875 -9.296875 L 13.84375 -19.890625 L 13.71875 -20.53125 L 13.65625 -20.53125 Z M 13.5 -19.890625 "/></g></g></g><g fill="#ffffff" fill-opacity="1"><g transform="translate(200.920367, 124.973051)"><g><path d="M 13.75 0 L 8.84375 0 L 8.84375 -22.46875 L 0.84375 -22.46875 L 0.84375 -26.859375 L 21.734375 -26.859375 L 21.734375 -22.46875 L 13.75 -22.46875 Z M 13.75 0 "/></g></g></g><g fill="#ffffff" fill-opacity="1"><g transform="translate(223.507535, 124.973051)"><g><path d="M 15.78125 0.578125 C 14.1875 0.578125 12.664062 0.34375 11.21875 -0.125 C 9.769531 -0.59375 8.441406 -1.253906 7.234375 -2.109375 C 6.035156 -2.960938 4.988281 -3.972656 4.09375 -5.140625 C 3.207031 -6.316406 2.519531 -7.609375 2.03125 -9.015625 C 1.539062 -10.429688 1.296875 -11.914062 1.296875 -13.46875 C 1.296875 -15.03125 1.539062 -16.507812 2.03125 -17.90625 C 2.519531 -19.3125 3.207031 -20.597656 4.09375 -21.765625 C 4.988281 -22.929688 6.035156 -23.941406 7.234375 -24.796875 C 8.441406 -25.648438 9.769531 -26.3125 11.21875 -26.78125 C 12.664062 -27.25 14.1875 -27.484375 15.78125 -27.484375 C 17.375 -27.484375 18.894531 -27.25 20.34375 -26.78125 C 21.789062 -26.3125 23.117188 -25.648438 24.328125 -24.796875 C 25.535156 -23.941406 26.582031 -22.929688 27.46875 -21.765625 C 28.363281 -20.597656 29.050781 -19.3125 29.53125 -17.90625 C 30.019531 -16.507812 30.265625 -15.03125 30.265625 -13.46875 C 30.265625 -11.914062 30.019531 -10.429688 29.53125 -9.015625 C 29.050781 -7.609375 28.363281 -6.316406 27.46875 -5.140625 C 26.582031 -3.972656 25.535156 -2.960938 24.328125 -2.109375 C 23.117188 -1.253906 21.789062 -0.59375 20.34375 -0.125 C 18.90625 0.34375 17.382812 0.578125 15.78125 0.578125 Z M 15.78125 -3.953125 C 17.101562 -3.953125 18.34375 -4.1875 19.5 -4.65625 C 20.664062 -5.132812 21.6875 -5.800781 22.5625 -6.65625 C 23.445312 -7.507812 24.132812 -8.515625 24.625 -9.671875 C 25.125 -10.828125 25.375 -12.085938 25.375 -13.453125 C 25.375 -14.816406 25.125 -16.082031 24.625 -17.25 C 24.132812 -18.414062 23.445312 -19.425781 22.5625 -20.28125 C 21.6875 -21.132812 20.664062 -21.796875 19.5 -22.265625 C 18.34375 -22.742188 17.101562 -22.984375 15.78125 -22.984375 C 14.457031 -22.984375 13.21875 -22.742188 12.0625 -22.265625 C 10.90625 -21.796875 9.890625 -21.128906 9.015625 -20.265625 C 8.140625 -19.398438 7.453125 -18.390625 6.953125 -17.234375 C 6.460938 -16.078125 6.21875 -14.816406 6.21875 -13.453125 C 6.21875 -12.085938 6.460938 -10.828125 6.953125 -9.671875 C 7.453125 -8.515625 8.140625 -7.507812 9.015625 -6.65625 C 9.890625 -5.800781 10.90625 -5.132812 12.0625 -4.65625 C 13.21875 -4.1875 14.457031 -3.953125 15.78125 -3.953125 Z M 15.78125 -3.953125 "/></g></g></g><g fill="#ffffff" fill-opacity="1"><g transform="translate(255.078245, 124.973051)"><g><path d="M 8.109375 0 L 3.203125 0 L 3.203125 -26.859375 L 7.484375 -26.859375 L 16.75 -14.328125 L 26.0625 -26.859375 L 30.34375 -26.859375 L 30.34375 0 L 25.4375 0 L 25.4375 -18.96875 L 17.390625 -8 L 16.078125 -8 L 8.109375 -19.015625 Z M 8.109375 0 "/></g></g></g><g fill="#ffffff" fill-opacity="1"><g transform="translate(94.919107, 140.299233)"><g><path d="M 3.03125 -6.640625 C 3.882812 -6.640625 4.65625 -6.414062 5.34375 -5.96875 L 4.875 -4.984375 C 4.207031 -5.390625 3.566406 -5.59375 2.953125 -5.59375 C 2.617188 -5.59375 2.351562 -5.53125 2.15625 -5.40625 C 1.96875 -5.289062 1.875 -5.125 1.875 -4.90625 C 1.875 -4.6875 1.960938 -4.5 2.140625 -4.34375 C 2.316406 -4.195312 2.535156 -4.085938 2.796875 -4.015625 C 3.054688 -3.941406 3.34375 -3.847656 3.65625 -3.734375 C 3.96875 -3.628906 4.253906 -3.515625 4.515625 -3.390625 C 4.773438 -3.265625 4.988281 -3.070312 5.15625 -2.8125 C 5.332031 -2.550781 5.421875 -2.234375 5.421875 -1.859375 C 5.421875 -1.285156 5.191406 -0.828125 4.734375 -0.484375 C 4.273438 -0.140625 3.675781 0.03125 2.9375 0.03125 C 2.4375 0.03125 1.945312 -0.0625 1.46875 -0.25 C 1 -0.4375 0.59375 -0.691406 0.25 -1.015625 L 0.71875 -1.96875 C 1.050781 -1.65625 1.414062 -1.414062 1.8125 -1.25 C 2.21875 -1.09375 2.597656 -1.015625 2.953125 -1.015625 C 3.347656 -1.015625 3.648438 -1.082031 3.859375 -1.21875 C 4.078125 -1.363281 4.1875 -1.5625 4.1875 -1.8125 C 4.1875 -2.03125 4.097656 -2.21875 3.921875 -2.375 C 3.753906 -2.53125 3.535156 -2.644531 3.265625 -2.71875 C 3.003906 -2.789062 2.71875 -2.878906 2.40625 -2.984375 C 2.101562 -3.085938 1.816406 -3.195312 1.546875 -3.3125 C 1.285156 -3.425781 1.066406 -3.613281 0.890625 -3.875 C 0.710938 -4.132812 0.625 -4.445312 0.625 -4.8125 C 0.625 -5.363281 0.84375 -5.804688 1.28125 -6.140625 C 1.726562 -6.472656 2.3125 -6.640625 3.03125 -6.640625 Z M 3.03125 -6.640625 "/></g></g></g><g fill="#ffffff" fill-opacity="1"><g transform="translate(104.470416, 140.299233)"><g><path d="M 5.578125 -5.59375 L 1.984375 -5.59375 L 1.984375 -3.8125 L 5.203125 -3.8125 L 5.203125 -2.8125 L 1.984375 -2.8125 L 1.984375 -1 L 5.6875 -1 L 5.6875 0 L 0.859375 0 L 0.859375 -6.59375 L 5.578125 -6.59375 Z M 5.578125 -5.59375 "/></g></g></g><g fill="#ffffff" fill-opacity="1"><g transform="translate(114.341565, 140.299233)"><g><path d="M 6.46875 -6.59375 L 6.46875 -2.734375 C 6.46875 -1.867188 6.210938 -1.1875 5.703125 -0.6875 C 5.203125 -0.195312 4.503906 0.046875 3.609375 0.046875 C 2.710938 0.046875 2.007812 -0.195312 1.5 -0.6875 C 0.988281 -1.1875 0.734375 -1.867188 0.734375 -2.734375 L 0.734375 -6.59375 L 1.84375 -6.59375 L 1.84375 -2.734375 C 1.84375 -2.179688 2 -1.742188 2.3125 -1.421875 C 2.632812 -1.109375 3.070312 -0.953125 3.625 -0.953125 C 4.15625 -0.953125 4.578125 -1.109375 4.890625 -1.421875 C 5.203125 -1.734375 5.359375 -2.171875 5.359375 -2.734375 L 5.359375 -6.59375 Z M 6.46875 -6.59375 "/></g></g></g><g fill="#ffffff" fill-opacity="1"><g transform="translate(125.228686, 140.299233)"><g/></g></g><g fill="#ffffff" fill-opacity="1"><g transform="translate(131.355798, 140.299233)"><g><path d="M 6.46875 -6.59375 L 6.46875 -2.734375 C 6.46875 -1.867188 6.210938 -1.1875 5.703125 -0.6875 C 5.203125 -0.195312 4.503906 0.046875 3.609375 0.046875 C 2.710938 0.046875 2.007812 -0.195312 1.5 -0.6875 C 0.988281 -1.1875 0.734375 -1.867188 0.734375 -2.734375 L 0.734375 -6.59375 L 1.84375 -6.59375 L 1.84375 -2.734375 C 1.84375 -2.179688 2 -1.742188 2.3125 -1.421875 C 2.632812 -1.109375 3.070312 -0.953125 3.625 -0.953125 C 4.15625 -0.953125 4.578125 -1.109375 4.890625 -1.421875 C 5.203125 -1.734375 5.359375 -2.171875 5.359375 -2.734375 L 5.359375 -6.59375 Z M 6.46875 -6.59375 "/></g></g></g><g fill="#ffffff" fill-opacity="1"><g transform="translate(142.242921, 140.299233)"><g><path d="M 6.578125 0 L 5.5 0 L 1.984375 -4.734375 L 1.984375 0 L 0.859375 0 L 0.859375 -6.59375 L 1.953125 -6.59375 L 5.5 -1.859375 L 5.5 -6.59375 L 6.578125 -6.59375 Z M 6.578125 0 "/></g></g></g><g fill="#ffffff" fill-opacity="1"><g transform="translate(153.393445, 140.299233)"><g><path d="M 1.984375 0 L 0.859375 0 L 0.859375 -6.59375 L 1.984375 -6.59375 Z M 1.984375 0 "/></g></g></g><g fill="#ffffff" fill-opacity="1"><g transform="translate(159.934473, 140.299233)"><g><path d="M 3.8125 0 L 2.65625 0 L 0.03125 -6.59375 L 1.21875 -6.59375 L 3.265625 -1.234375 L 5.3125 -6.59375 L 6.46875 -6.59375 Z M 3.8125 0 "/></g></g></g><g fill="#ffffff" fill-opacity="1"><g transform="translate(170.125461, 140.299233)"><g><path d="M 5.578125 -5.59375 L 1.984375 -5.59375 L 1.984375 -3.8125 L 5.203125 -3.8125 L 5.203125 -2.8125 L 1.984375 -2.8125 L 1.984375 -1 L 5.6875 -1 L 5.6875 0 L 0.859375 0 L 0.859375 -6.59375 L 5.578125 -6.59375 Z M 5.578125 -5.59375 "/></g></g></g><g fill="#ffffff" fill-opacity="1"><g transform="translate(179.996607, 140.299233)"><g><path d="M 5.046875 0 L 3.84375 -2 C 3.78125 -1.988281 3.679688 -1.984375 3.546875 -1.984375 L 1.984375 -1.984375 L 1.984375 0 L 0.859375 0 L 0.859375 -6.59375 L 3.546875 -6.59375 C 4.390625 -6.59375 5.039062 -6.394531 5.5 -6 C 5.96875 -5.613281 6.203125 -5.0625 6.203125 -4.34375 C 6.203125 -3.8125 6.082031 -3.363281 5.84375 -3 C 5.613281 -2.632812 5.273438 -2.367188 4.828125 -2.203125 L 6.3125 0 Z M 1.984375 -2.984375 L 3.546875 -2.984375 C 4.609375 -2.984375 5.140625 -3.425781 5.140625 -4.3125 C 5.140625 -5.164062 4.609375 -5.59375 3.546875 -5.59375 L 1.984375 -5.59375 Z M 1.984375 -2.984375 "/></g></g></g><g fill="#ffffff" fill-opacity="1"><g transform="translate(190.49803, 140.299233)"><g><path d="M 3.03125 -6.640625 C 3.882812 -6.640625 4.65625 -6.414062 5.34375 -5.96875 L 4.875 -4.984375 C 4.207031 -5.390625 3.566406 -5.59375 2.953125 -5.59375 C 2.617188 -5.59375 2.351562 -5.53125 2.15625 -5.40625 C 1.96875 -5.289062 1.875 -5.125 1.875 -4.90625 C 1.875 -4.6875 1.960938 -4.5 2.140625 -4.34375 C 2.316406 -4.195312 2.535156 -4.085938 2.796875 -4.015625 C 3.054688 -3.941406 3.34375 -3.847656 3.65625 -3.734375 C 3.96875 -3.628906 4.253906 -3.515625 4.515625 -3.390625 C 4.773438 -3.265625 4.988281 -3.070312 5.15625 -2.8125 C 5.332031 -2.550781 5.421875 -2.234375 5.421875 -1.859375 C 5.421875 -1.285156 5.191406 -0.828125 4.734375 -0.484375 C 4.273438 -0.140625 3.675781 0.03125 2.9375 0.03125 C 2.4375 0.03125 1.945312 -0.0625 1.46875 -0.25 C 1 -0.4375 0.59375 -0.691406 0.25 -1.015625 L 0.71875 -1.96875 C 1.050781 -1.65625 1.414062 -1.414062 1.8125 -1.25 C 2.21875 -1.09375 2.597656 -1.015625 2.953125 -1.015625 C 3.347656 -1.015625 3.648438 -1.082031 3.859375 -1.21875 C 4.078125 -1.363281 4.1875 -1.5625 4.1875 -1.8125 C 4.1875 -2.03125 4.097656 -2.21875 3.921875 -2.375 C 3.753906 -2.53125 3.535156 -2.644531 3.265625 -2.71875 C 3.003906 -2.789062 2.71875 -2.878906 2.40625 -2.984375 C 2.101562 -3.085938 1.816406 -3.195312 1.546875 -3.3125 C 1.285156 -3.425781 1.066406 -3.613281 0.890625 -3.875 C 0.710938 -4.132812 0.625 -4.445312 0.625 -4.8125 C 0.625 -5.363281 0.84375 -5.804688 1.28125 -6.140625 C 1.726562 -6.472656 2.3125 -6.640625 3.03125 -6.640625 Z M 3.03125 -6.640625 "/></g></g></g><g fill="#ffffff" fill-opacity="1"><g transform="translate(200.049336, 140.299233)"><g><path d="M 1.328125 -5.65625 C 2.003906 -6.300781 2.832031 -6.625 3.8125 -6.625 C 4.800781 -6.625 5.628906 -6.300781 6.296875 -5.65625 C 6.972656 -5.019531 7.3125 -4.234375 7.3125 -3.296875 C 7.3125 -2.359375 6.972656 -1.566406 6.296875 -0.921875 C 5.628906 -0.273438 4.800781 0.046875 3.8125 0.046875 C 2.832031 0.046875 2.003906 -0.273438 1.328125 -0.921875 C 0.660156 -1.566406 0.328125 -2.359375 0.328125 -3.296875 C 0.328125 -4.234375 0.660156 -5.019531 1.328125 -5.65625 Z M 3.828125 -5.625 C 3.171875 -5.625 2.609375 -5.398438 2.140625 -4.953125 C 1.679688 -4.503906 1.453125 -3.953125 1.453125 -3.296875 C 1.453125 -2.640625 1.6875 -2.082031 2.15625 -1.625 C 2.625 -1.175781 3.179688 -0.953125 3.828125 -0.953125 C 4.472656 -0.953125 5.023438 -1.175781 5.484375 -1.625 C 5.941406 -2.082031 6.171875 -2.640625 6.171875 -3.296875 C 6.171875 -3.953125 5.941406 -4.503906 5.484375 -4.953125 C 5.023438 -5.398438 4.472656 -5.625 3.828125 -5.625 Z M 3.828125 -5.625 "/></g></g></g><g fill="#ffffff" fill-opacity="1"><g transform="translate(211.369184, 140.299233)"><g/></g></g><g fill="#ffffff" fill-opacity="1"><g transform="translate(217.496292, 140.299233)"><g><path d="M 7.84375 0 L 6.8125 0 L 6.796875 -4.921875 L 4.71875 -0.6875 L 4 -0.6875 L 1.90625 -4.921875 L 1.90625 0 L 0.859375 0 L 0.859375 -6.59375 L 2.1875 -6.59375 L 4.359375 -2.21875 L 6.53125 -6.59375 L 7.84375 -6.59375 Z M 7.84375 0 "/></g></g></g><g fill="#ffffff" fill-opacity="1"><g transform="translate(229.897966, 140.299233)"><g><path d="M 6.46875 -6.59375 L 6.46875 -2.734375 C 6.46875 -1.867188 6.210938 -1.1875 5.703125 -0.6875 C 5.203125 -0.195312 4.503906 0.046875 3.609375 0.046875 C 2.710938 0.046875 2.007812 -0.195312 1.5 -0.6875 C 0.988281 -1.1875 0.734375 -1.867188 0.734375 -2.734375 L 0.734375 -6.59375 L 1.84375 -6.59375 L 1.84375 -2.734375 C 1.84375 -2.179688 2 -1.742188 2.3125 -1.421875 C 2.632812 -1.109375 3.070312 -0.953125 3.625 -0.953125 C 4.15625 -0.953125 4.578125 -1.109375 4.890625 -1.421875 C 5.203125 -1.734375 5.359375 -2.171875 5.359375 -2.734375 L 5.359375 -6.59375 Z M 6.46875 -6.59375 "/></g></g></g><g fill="#ffffff" fill-opacity="1"><g transform="translate(240.785084, 140.299233)"><g><path d="M 3.03125 -6.640625 C 3.882812 -6.640625 4.65625 -6.414062 5.34375 -5.96875 L 4.875 -4.984375 C 4.207031 -5.390625 3.566406 -5.59375 2.953125 -5.59375 C 2.617188 -5.59375 2.351562 -5.53125 2.15625 -5.40625 C 1.96875 -5.289062 1.875 -5.125 1.875 -4.90625 C 1.875 -4.6875 1.960938 -4.5 2.140625 -4.34375 C 2.316406 -4.195312 2.535156 -4.085938 2.796875 -4.015625 C 3.054688 -3.941406 3.34375 -3.847656 3.65625 -3.734375 C 3.96875 -3.628906 4.253906 -3.515625 4.515625 -3.390625 C 4.773438 -3.265625 4.988281 -3.070312 5.15625 -2.8125 C 5.332031 -2.550781 5.421875 -2.234375 5.421875 -1.859375 C 5.421875 -1.285156 5.191406 -0.828125 4.734375 -0.484375 C 4.273438 -0.140625 3.675781 0.03125 2.9375 0.03125 C 2.4375 0.03125 1.945312 -0.0625 1.46875 -0.25 C 1 -0.4375 0.59375 -0.691406 0.25 -1.015625 L 0.71875 -1.96875 C 1.050781 -1.65625 1.414062 -1.414062 1.8125 -1.25 C 2.21875 -1.09375 2.597656 -1.015625 2.953125 -1.015625 C 3.347656 -1.015625 3.648438 -1.082031 3.859375 -1.21875 C 4.078125 -1.363281 4.1875 -1.5625 4.1875 -1.8125 C 4.1875 -2.03125 4.097656 -2.21875 3.921875 -2.375 C 3.753906 -2.53125 3.535156 -2.644531 3.265625 -2.71875 C 3.003906 -2.789062 2.71875 -2.878906 2.40625 -2.984375 C 2.101562 -3.085938 1.816406 -3.195312 1.546875 -3.3125 C 1.285156 -3.425781 1.066406 -3.613281 0.890625 -3.875 C 0.710938 -4.132812 0.625 -4.445312 0.625 -4.8125 C 0.625 -5.363281 0.84375 -5.804688 1.28125 -6.140625 C 1.726562 -6.472656 2.3125 -6.640625 3.03125 -6.640625 Z M 3.03125 -6.640625 "/></g></g></g><g fill="#ffffff" fill-opacity="1"><g transform="translate(250.336397, 140.299233)"><g><path d="M 1.984375 0 L 0.859375 0 L 0.859375 -6.59375 L 1.984375 -6.59375 Z M 1.984375 0 "/></g></g></g><g fill="#ffffff" fill-opacity="1"><g transform="translate(256.877429, 140.299233)"><g><path d="M 3.78125 -6.625 C 4.25 -6.625 4.703125 -6.535156 5.140625 -6.359375 C 5.585938 -6.179688 5.972656 -5.929688 6.296875 -5.609375 L 5.640625 -4.796875 C 5.398438 -5.054688 5.117188 -5.257812 4.796875 -5.40625 C 4.472656 -5.5625 4.144531 -5.640625 3.8125 -5.640625 C 3.144531 -5.640625 2.582031 -5.410156 2.125 -4.953125 C 1.675781 -4.503906 1.453125 -3.957031 1.453125 -3.3125 C 1.453125 -2.664062 1.675781 -2.113281 2.125 -1.65625 C 2.582031 -1.207031 3.144531 -0.984375 3.8125 -0.984375 C 4.488281 -0.984375 5.097656 -1.242188 5.640625 -1.765625 L 6.296875 -1.03125 C 5.960938 -0.695312 5.566406 -0.429688 5.109375 -0.234375 C 4.660156 -0.046875 4.207031 0.046875 3.75 0.046875 C 2.78125 0.046875 1.96875 -0.273438 1.3125 -0.921875 C 0.65625 -1.566406 0.328125 -2.363281 0.328125 -3.3125 C 0.328125 -4.238281 0.660156 -5.019531 1.328125 -5.65625 C 1.992188 -6.300781 2.8125 -6.625 3.78125 -6.625 Z M 3.78125 -6.625 "/></g></g></g><g fill="#ffffff" fill-opacity="1"><g transform="translate(267.13428, 140.299233)"><g><path d="M 5.125 -1.484375 L 1.796875 -1.484375 L 1.171875 0 L 0.015625 0 L 2.921875 -6.59375 L 4.0625 -6.59375 L 6.9375 0 L 5.75 0 Z M 4.703125 -2.484375 L 3.453125 -5.40625 L 2.21875 -2.484375 Z M 4.703125 -2.484375 "/></g></g></g><g fill="#ffffff" fill-opacity="1"><g transform="translate(277.77681, 140.299233)"><g><path d="M 1.984375 -1.015625 L 4.828125 -1.015625 L 4.828125 0 L 0.859375 0 L 0.859375 -6.59375 L 1.984375 -6.59375 Z M 1.984375 -1.015625 "/></g></g></g><g clip-path="url(#a43066d20e)"><path fill="#ff914d" d="M 188.816406 36.105469 C 183.046875 33.882812 178.246094 37.84375 171.253906 37.84375 C 166.839844 37.84375 163.003906 34.6875 157.6875 31.046875 C 156.6875 30.367188 155.625 29.660156 154.527344 28.949219 C 153.785156 28.53125 153.046875 28.113281 152.273438 27.757812 L 152.273438 56.375 C 152.273438 62.949219 146.921875 68.300781 140.347656 68.300781 C 133.773438 68.300781 128.425781 62.949219 128.425781 56.375 C 128.425781 49.800781 133.773438 44.453125 140.347656 44.453125 C 142.441406 44.453125 144.410156 45 146.117188 45.933594 C 146.117188 45.933594 146.117188 31.851562 146.117188 25.566406 L 146.117188 23.117188 C 146.117188 19.734375 149.824219 17.316406 154.464844 20.699219 C 159.105469 24.085938 162.457031 29.335938 167.644531 27.757812 C 160.617188 27.308594 154.558594 7.585938 140.445312 13.644531 L 140.445312 24.730469 C 139.832031 24.695312 139.253906 24.664062 138.640625 24.664062 C 121.109375 24.664062 106.929688 38.875 106.929688 56.375 C 106.929688 73.875 121.109375 88.085938 138.640625 88.085938 C 144.472656 88.085938 149.917969 86.507812 154.625 83.769531 C 162.488281 79.480469 166.066406 74.90625 171.285156 74.90625 C 178.277344 74.90625 183.046875 78.871094 188.847656 76.644531 C 194.390625 74.519531 195.550781 69.878906 195.777344 63.238281 L 232.710938 62.207031 L 232.710938 50.574219 L 195.746094 49.542969 C 195.519531 42.871094 194.359375 38.230469 188.816406 36.105469 Z M 123.300781 66.269531 L 121.269531 66.269531 L 121.269531 46.480469 L 123.300781 46.480469 Z M 224.039062 52.476562 L 224.976562 52.476562 L 224.976562 60.273438 L 224.039062 60.273438 Z M 214.210938 52.21875 L 215.144531 52.21875 L 215.144531 60.566406 L 214.210938 60.566406 Z M 204.382812 52.023438 L 205.316406 52.023438 L 205.316406 60.695312 L 204.382812 60.695312 Z M 204.382812 52.023438 " fill-opacity="1" fill-rule="nonzero"/></g><g clip-path="url(#43a21744cb)"><path fill="#ff914d" d="M 262.808594 45.03125 L 258.457031 45.03125 L 258.457031 42.839844 L 258.910156 42.839844 C 259.683594 42.839844 260.296875 42.226562 260.296875 41.453125 C 260.296875 40.679688 259.683594 40.070312 258.910156 40.070312 L 256.460938 40.070312 C 255.6875 40.070312 255.074219 40.679688 255.074219 41.453125 C 255.074219 42.226562 255.6875 42.839844 256.460938 42.839844 L 256.910156 42.839844 L 256.910156 45.03125 L 251.820312 45.03125 L 251.820312 42.839844 L 252.269531 42.839844 C 253.042969 42.839844 253.65625 42.226562 253.65625 41.453125 C 253.65625 40.679688 253.042969 40.070312 252.269531 40.070312 L 249.820312 40.070312 C 249.046875 40.070312 248.4375 40.679688 248.4375 41.453125 C 248.4375 42.226562 249.046875 42.839844 249.820312 42.839844 L 250.273438 42.839844 L 250.273438 45.03125 L 245.179688 45.03125 L 245.179688 42.839844 L 245.632812 42.839844 C 246.40625 42.839844 247.019531 42.226562 247.019531 41.453125 C 247.019531 40.679688 246.40625 40.070312 245.632812 40.070312 L 243.183594 40.070312 C 242.410156 40.070312 241.796875 40.679688 241.796875 41.453125 C 241.796875 42.226562 242.410156 42.839844 243.183594 42.839844 L 243.632812 42.839844 L 243.632812 45.03125 L 240.734375 45.03125 L 235.191406 50.605469 L 235.191406 62.144531 L 240.703125 67.75 L 243.601562 67.75 L 243.601562 69.941406 L 243.152344 69.941406 C 242.378906 69.941406 241.765625 70.554688 241.765625 71.328125 C 241.765625 72.101562 242.378906 72.714844 243.152344 72.714844 L 245.601562 72.714844 C 246.375 72.714844 246.984375 72.101562 246.984375 71.328125 C 246.984375 70.554688 246.375 69.941406 245.601562 69.941406 L 245.179688 69.941406 L 245.179688 67.75 L 250.273438 67.75 L 250.273438 69.941406 L 249.820312 69.941406 C 249.046875 69.941406 248.4375 70.554688 248.4375 71.328125 C 248.4375 72.101562 249.046875 72.714844 249.820312 72.714844 L 252.269531 72.714844 C 253.042969 72.714844 253.65625 72.101562 253.65625 71.328125 C 253.65625 70.554688 253.042969 69.941406 252.269531 69.941406 L 251.820312 69.941406 L 251.820312 67.75 L 256.910156 67.75 L 256.910156 69.941406 L 256.460938 69.941406 C 255.6875 69.941406 255.074219 70.554688 255.074219 71.328125 C 255.074219 72.101562 255.6875 72.714844 256.460938 72.714844 L 258.910156 72.714844 C 259.683594 72.714844 260.296875 72.101562 260.296875 71.328125 C 260.296875 70.554688 259.683594 69.941406 258.910156 69.941406 L 258.457031 69.941406 L 258.457031 67.75 L 262.808594 67.75 L 268.0625 62.144531 L 268.0625 50.605469 Z M 244.40625 64.820312 C 243.34375 64.820312 242.507812 63.949219 242.507812 62.917969 C 242.507812 61.855469 243.375 61.015625 244.40625 61.015625 C 245.472656 61.015625 246.308594 61.886719 246.308594 62.917969 C 246.308594 63.980469 245.4375 64.820312 244.40625 64.820312 Z M 244.40625 51.734375 C 243.34375 51.734375 242.507812 50.863281 242.507812 49.832031 C 242.507812 48.769531 243.375 47.933594 244.40625 47.933594 C 245.472656 47.933594 246.308594 48.800781 246.308594 49.832031 C 246.308594 50.898438 245.4375 51.734375 244.40625 51.734375 Z M 251.046875 64.820312 C 249.984375 64.820312 249.144531 63.949219 249.144531 62.917969 C 249.144531 61.855469 250.015625 61.015625 251.046875 61.015625 C 252.109375 61.015625 252.949219 61.886719 252.949219 62.917969 C 252.949219 63.980469 252.078125 64.820312 251.046875 64.820312 Z M 251.046875 51.734375 C 249.984375 51.734375 249.144531 50.863281 249.144531 49.832031 C 249.144531 48.769531 250.015625 47.933594 251.046875 47.933594 C 252.109375 47.933594 252.949219 48.800781 252.949219 49.832031 C 252.949219 50.898438 252.078125 51.734375 251.046875 51.734375 Z M 257.683594 64.820312 C 256.621094 64.820312 255.785156 63.949219 255.785156 62.917969 C 255.785156 61.855469 256.652344 61.015625 257.683594 61.015625 C 258.75 61.015625 259.585938 61.886719 259.585938 62.917969 C 259.585938 63.980469 258.75 64.820312 257.683594 64.820312 Z M 257.683594 51.734375 C 256.621094 51.734375 255.785156 50.863281 255.785156 49.832031 C 255.785156 48.769531 256.652344 47.933594 257.683594 47.933594 C 258.75 47.933594 259.585938 48.800781 259.585938 49.832031 C 259.585938 50.898438 258.75 51.734375 257.683594 51.734375 Z M 257.683594 51.734375 " fill-opacity="1" fill-rule="nonzero"/></g><path fill="#ff914d" d="M 141.347656 46.417969 C 141.023438 46.386719 140.703125 46.386719 140.378906 46.386719 C 134.871094 46.386719 130.390625 50.863281 130.390625 56.375 C 130.390625 61.886719 134.871094 66.367188 140.378906 66.367188 C 140.703125 66.367188 141.023438 66.332031 141.347656 66.332031 C 136.289062 65.851562 132.324219 61.597656 132.324219 56.375 C 132.324219 51.1875 136.253906 46.933594 141.347656 46.417969 Z M 141.347656 46.417969 " fill-opacity="1" fill-rule="nonzero"/></svg>